<svg preserveAspectRatio="none" width="100%" height="100%" overflow="visible" style="display: block;" viewBox="0 0 106.667 106.667" fill="none" xmlns="http://www.w3.org/2000/svg">
<g id="Container" opacity="0.05">
<path id="Icon" d="M10.7692 106.667C7.70087 106.667 5.1389 105.639 3.08334 103.583C1.02778 101.528 0 98.9659 0 95.8975V10.7692C0 7.70087 1.02778 5.1389 3.08334 3.08333C5.1389 1.02778 7.70087 0 10.7692 0H95.8975C98.9659 0 101.528 1.02778 103.583 3.08333C105.639 5.1389 106.667 7.70087 106.667 10.7692V95.8975C106.667 98.9659 105.639 101.528 103.583 103.583C101.528 105.639 98.9659 106.667 95.8975 106.667H10.7692V106.667M10.7692 100H31.0257V67.9488H28.3334C26.7009 67.9488 25.3526 67.4167 24.2885 66.3526C23.2244 65.2885 22.6923 63.9402 22.6923 62.3077V6.66671H10.7692C9.57267 6.66671 8.58977 7.05132 7.82055 7.82055C7.05132 8.58977 6.66671 9.57267 6.66671 10.7692V95.8975C6.66671 97.0941 7.05132 98.077 7.82055 98.8462C8.58977 99.6154 9.57267 100 10.7692 100V100M75.6411 100H95.8975C97.0941 100 98.077 99.6154 98.8462 98.8462C99.6154 98.077 100 97.0941 100 95.8975V10.7692C100 9.57267 99.6154 8.58977 98.8462 7.82055C98.077 7.05132 97.0941 6.66671 95.8975 6.66671H83.9744V62.3077C83.9744 63.9402 83.4424 65.2885 82.3783 66.3526C81.3142 67.4167 79.9659 67.9488 78.3334 67.9488H75.6411V100V100M36.9231 100H69.7436V67.9488H67.0513C65.4188 67.9488 64.0706 67.4167 63.0065 66.3526C61.9423 65.2885 61.4103 63.9402 61.4103 62.3077V6.66671H45.2565V62.3077C45.2565 63.9402 44.7244 65.2885 43.6603 66.3526C42.5962 67.4167 41.2479 67.9488 39.6154 67.9488H36.9231V100V100" fill="var(--fill-0, #E5E2E0)"/>
</g>
</svg>
