<svg preserveAspectRatio="none" width="100%" height="100%" overflow="visible" style="display: block;" viewBox="0 0 111.843 120" fill="none" xmlns="http://www.w3.org/2000/svg">
<g id="Container" opacity="0.05">
<path id="Icon" d="M20 120V94.9231C13.6667 89.1454 8.75 82.6518 5.25 75.4424C1.75 68.233 0 60.8206 0 53.2052C0 38.4188 5.19231 25.8547 15.5769 15.5128C25.9616 5.17095 38.547 0 53.3334 0C65.3419 0 76.1945 3.65599 85.8911 10.968C95.5877 18.2799 101.876 27.7222 104.756 39.2949L111.628 66.6667C112.098 68.3505 111.795 69.8826 110.718 71.2629C109.641 72.6432 108.205 73.3334 106.41 73.3334H93.3334V95.8975C93.3334 98.8804 92.2843 101.421 90.186 103.519C88.0877 105.618 85.5471 106.667 82.5642 106.667H66.6667V120H60V100H82.5642C83.7607 100 84.7436 99.6154 85.5129 98.8462C86.2821 98.077 86.6667 97.0941 86.6667 95.8975V66.6667H104.667L98.3334 40.8334C95.7778 30.6368 90.2906 22.3932 81.8718 16.1026C73.453 9.81201 63.9402 6.66671 53.3334 6.66671C40.4445 6.66671 29.4445 11.1881 20.3334 20.2308C11.2223 29.2735 6.66671 40.2394 6.66671 53.1282C6.66671 59.7949 8.02782 66.1069 10.75 72.0641C13.4723 78.0214 17.3334 83.3334 22.3334 88L26.6667 92V120H20V120M55.6667 63.3334V63.3334V63.3334V63.3334V63.3334V63.3334V63.3334V63.3334V63.3334V63.3334V63.3334V63.3334V63.3334V63.3334V63.3334V63.3334V63.3334V63.3334M49.6154 77.1795H57.0513L57.5385 71.0257C59.2821 70.6924 60.9424 70.1112 62.5193 69.2821C64.0962 68.453 65.4188 67.3761 66.4872 66.0513L71.8462 68.7437L75.5642 62.4103L70.6924 58.8205C71.4274 56.9915 71.7949 55.1624 71.7949 53.3334C71.7949 51.5043 71.4274 49.6753 70.6924 47.8462L75.5642 44.2565L71.8462 37.9231L66.4872 40.6154C65.4188 39.2906 64.0962 38.2137 62.5193 37.3846C60.9424 36.5556 59.2821 35.9744 57.5385 35.6411L57.0513 29.4872H49.6154L49.1282 35.6411C47.3846 35.9744 45.7244 36.5556 44.1475 37.3846C42.5706 38.2137 41.2479 39.2906 40.1795 40.6154L34.8205 37.9231L31.1026 44.2565L35.9744 47.8462C35.2393 49.6753 34.8718 51.5043 34.8718 53.3334C34.8718 55.1624 35.2393 56.9915 35.9744 58.8205L31.1026 62.4103L34.8205 68.7437L40.1795 66.0513C41.2479 67.3761 42.5706 68.453 44.1475 69.2821C45.7244 70.1112 47.3846 70.6924 49.1282 71.0257L49.6154 77.1795V77.1795M53.3334 65.7693C49.8718 65.7693 46.9338 64.562 44.5193 62.1475C42.1048 59.7329 40.8975 56.7949 40.8975 53.3334C40.8975 49.8718 42.1048 46.9338 44.5193 44.5193C46.9338 42.1048 49.8718 40.8975 53.3334 40.8975C56.7949 40.8975 59.7329 42.1048 62.1475 44.5193C64.562 46.9338 65.7693 49.8718 65.7693 53.3334C65.7693 56.7949 64.562 59.7329 62.1475 62.1475C59.7329 64.562 56.7949 65.7693 53.3334 65.7693V65.7693" fill="var(--fill-0, #E5E2E0)"/>
</g>
</svg>
