<svg preserveAspectRatio="none" width="100%" height="100%" overflow="visible" style="display: block;" viewBox="0 0 106.667 106.667" fill="none" xmlns="http://www.w3.org/2000/svg">
<g id="Container" opacity="0.05">
<path id="Icon" d="M29.2308 106.667V100H50V74.9744C44.1282 73.9231 38.9893 71.468 34.5834 67.609C30.1774 63.7501 27.1453 58.9659 25.4872 53.2565C18.4359 52.4274 12.4252 49.5364 7.45513 44.5834C2.48504 39.6304 0 33.6582 0 26.6667V20C0 18.2137 0.664534 16.656 1.9936 15.3269C3.32267 13.9979 4.88037 13.3333 6.66671 13.3333H24.359V0H82.3078V13.3333H100C101.786 13.3333 103.344 13.9979 104.673 15.3269C106.002 16.656 106.667 18.2137 106.667 20V26.6667C106.667 33.6582 104.182 39.6304 99.2116 44.5834C94.2415 49.5364 88.2308 52.4274 81.1795 53.2565C79.5214 58.9659 76.4894 63.7501 72.0834 67.609C67.6774 71.468 62.5385 73.9231 56.6667 74.9744V100H77.436V106.667H29.2308V106.667M24.359 46.1026V20H6.66671V26.6667C6.66671 31.7436 8.35901 36.1047 11.7436 39.75C15.1282 43.3953 19.3334 45.5129 24.359 46.1026V46.1026M53.3334 68.4616C59.4872 68.4616 64.7009 66.3248 68.9744 62.0513C73.2479 57.7778 75.3846 52.5641 75.3846 46.4103V6.66671H31.2821V46.4103C31.2821 52.5641 33.4189 57.7778 37.6924 62.0513C41.9659 66.3248 47.1795 68.4616 53.3334 68.4616V68.4616M82.3078 46.1026C87.3334 45.5129 91.5385 43.3953 94.9231 39.75C98.3077 36.1047 100 31.7436 100 26.6667V20H82.3078V46.1026V46.1026M53.3334 37.5641V37.5641V37.5641V37.5641V37.5641V37.5641V37.5641V37.5641V37.5641" fill="var(--fill-0, #E5E2E0)"/>
</g>
</svg>
