<svg preserveAspectRatio="none" width="100%" height="100%" overflow="visible" style="display: block;" viewBox="0 0 106.667 106.667" fill="none" xmlns="http://www.w3.org/2000/svg">
<g id="Container" opacity="0.05">
<path id="Icon" d="M0 46.6667V0H46.6667V46.6667H0V46.6667M0 106.667V60H46.6667V106.667H0V106.667M60 46.6667V0H106.667V46.6667H60V46.6667M60 106.667V60H106.667V106.667H60V106.667M6.66671 40H40V6.66671H6.66671V40V40M66.6667 40H100V6.66671H66.6667V40V40M66.6667 100H100V66.6667H66.6667V100V100M6.66671 100H40V66.6667H6.66671V100V100M66.6667 40V40V40V40V40V40M66.6667 66.6667V66.6667V66.6667V66.6667V66.6667V66.6667M40 66.6667V66.6667V66.6667V66.6667V66.6667V66.6667M40 40V40V40V40V40V40" fill="var(--fill-0, #E5E2E0)"/>
</g>
</svg>
