<svg preserveAspectRatio="none" width="100%" height="100%" overflow="visible" style="display: block;" viewBox="0 0 106.667 106.667" fill="none" xmlns="http://www.w3.org/2000/svg">
<g id="Container" opacity="0.05">
<path id="Icon" d="M27.4359 83.5898C28.8975 83.5898 30.1176 83.1005 31.0962 82.1218C32.0748 81.1432 32.5641 79.9231 32.5641 78.4616C32.5641 77 32.0748 75.78 31.0962 74.8013C30.1176 73.8227 28.8975 73.3334 27.4359 73.3334C25.9744 73.3334 24.7543 73.8227 23.7757 74.8013C22.797 75.78 22.3077 77 22.3077 78.4616C22.3077 79.9231 22.797 81.1432 23.7757 82.1218C24.7543 83.1005 25.9744 83.5898 27.4359 83.5898V83.5898M27.4359 58.4616C28.8975 58.4616 30.1176 57.9723 31.0962 56.9936C32.0748 56.015 32.5641 54.7949 32.5641 53.3334C32.5641 51.8718 32.0748 50.6517 31.0962 49.6731C30.1176 48.6945 28.8975 48.2052 27.4359 48.2052C25.9744 48.2052 24.7543 48.6945 23.7757 49.6731C22.797 50.6517 22.3077 51.8718 22.3077 53.3334C22.3077 54.7949 22.797 56.015 23.7757 56.9936C24.7543 57.9723 25.9744 58.4616 27.4359 58.4616V58.4616M27.4359 33.3334C28.8975 33.3334 30.1176 32.8441 31.0962 31.8654C32.0748 30.8868 32.5641 29.6667 32.5641 28.2052C32.5641 26.7436 32.0748 25.5235 31.0962 24.5449C30.1176 23.5663 28.8975 23.0769 27.4359 23.0769C25.9744 23.0769 24.7543 23.5663 23.7757 24.5449C22.797 25.5235 22.3077 26.7436 22.3077 28.2052C22.3077 29.6667 22.797 30.8868 23.7757 31.8654C24.7543 32.8441 25.9744 33.3334 27.4359 33.3334V33.3334M47.9487 81.7949H83.8462V75.1282H47.9487V81.7949V81.7949M47.9487 56.6667H83.8462V50H47.9487V56.6667V56.6667M47.9487 31.5385H83.8462V24.8718H47.9487V31.5385V31.5385M10.7692 106.667C7.70087 106.667 5.1389 105.639 3.08334 103.583C1.02778 101.528 0 98.9659 0 95.8975V10.7692C0 7.70087 1.02778 5.1389 3.08334 3.08333C5.1389 1.02778 7.70087 0 10.7692 0H95.8975C98.9659 0 101.528 1.02778 103.583 3.08333C105.639 5.1389 106.667 7.70087 106.667 10.7692V95.8975C106.667 98.9659 105.639 101.528 103.583 103.583C101.528 105.639 98.9659 106.667 95.8975 106.667H10.7692V106.667M10.7692 100H95.8975C96.9231 100 97.8633 99.5727 98.718 98.718C99.5727 97.8633 100 96.9231 100 95.8975V10.7692C100 9.74361 99.5727 8.80345 98.718 7.94875C97.8633 7.09406 96.9231 6.66671 95.8975 6.66671H10.7692C9.74361 6.66671 8.80345 7.09406 7.94875 7.94875C7.09406 8.80345 6.66671 9.74361 6.66671 10.7692V95.8975C6.66671 96.9231 7.09406 97.8633 7.94875 98.718C8.80345 99.5727 9.74361 100 10.7692 100V100M6.66671 6.66671V6.66671C6.66671 6.66671 6.66671 7.05132 6.66671 7.82055C6.66671 8.58977 6.66671 9.57267 6.66671 10.7692V95.8975C6.66671 97.0941 6.66671 98.077 6.66671 98.8462C6.66671 99.6154 6.66671 100 6.66671 100V100C6.66671 100 6.66671 99.6154 6.66671 98.8462C6.66671 98.077 6.66671 97.0941 6.66671 95.8975V10.7692C6.66671 9.57267 6.66671 8.58977 6.66671 7.82055C6.66671 7.05132 6.66671 6.66671 6.66671 6.66671V6.66671" fill="var(--fill-0, #E5E2E0)"/>
</g>
</svg>
