<svg preserveAspectRatio="none" width="100%" height="100%" overflow="visible" style="display: block;" viewBox="0 0 14.4039 13" fill="none" xmlns="http://www.w3.org/2000/svg">
<g id="Container">
<path id="Icon" d="M2.40385 13V12H9.65769C10.6949 12 11.5785 11.6442 12.3087 10.9327C13.0388 10.2212 13.4038 9.35257 13.4038 8.32693C13.4038 7.30129 13.0388 6.4359 12.3087 5.73078C11.5785 5.02565 10.6949 4.67309 9.65769 4.67309H1.9154L4.88078 7.63847L4.17308 8.34616L0 4.17308L4.17308 0L4.88078 0.707697L1.9154 3.67308H9.65769C10.9667 3.67308 12.0849 4.12436 13.0125 5.02693C13.9401 5.92949 14.4039 7.02949 14.4039 8.32693C14.4039 9.62437 13.9401 10.7276 13.0125 11.6365C12.0849 12.5455 10.9667 13 9.65769 13H2.40385V13" fill="var(--fill-0, #E9C176)"/>
</g>
</svg>
