<svg preserveAspectRatio="none" width="100%" height="100%" overflow="visible" style="display: block;" viewBox="0 0 16.7764 18" fill="none" xmlns="http://www.w3.org/2000/svg">
<g id="Container">
<path id="Icon" d="M3 18V14.2385C2.05 13.3718 1.3125 12.3978 0.7875 11.3164C0.2625 10.2349 0 9.12308 0 7.98078C0 5.76283 0.778847 3.87821 2.33654 2.32693C3.89423 0.775642 5.78206 0 8.00001 0C9.80129 0 11.4292 0.548398 12.8837 1.64519C14.3382 2.74199 15.2814 4.15834 15.7135 5.89424L16.7442 10C16.8148 10.2526 16.7692 10.4824 16.6077 10.6894C16.4462 10.8965 16.2308 11 15.9616 11H14V14.3846C14 14.8321 13.8426 15.2132 13.5279 15.5279C13.2132 15.8426 12.8321 16 12.3846 16H10V18H9.00001V15H12.3846C12.5641 15 12.7115 14.9423 12.8269 14.8269C12.9423 14.7115 13 14.5641 13 14.3846V10H15.7L14.75 6.12501C14.3667 4.59552 13.5436 3.35898 12.2808 2.41539C11.018 1.4718 9.59103 1.00001 8.00001 1.00001C6.06667 1.00001 4.41667 1.67821 3.05001 3.03462C1.68334 4.39103 1.00001 6.0359 1.00001 7.96924C1.00001 8.96924 1.20417 9.91603 1.61251 10.8096C2.02084 11.7032 2.60001 12.5 3.35001 13.2L4.00001 13.8V18H3V18M8.35001 9.50001V9.50001V9.50001V9.50001V9.50001V9.50001V9.50001V9.50001V9.50001V9.50001V9.50001V9.50001V9.50001V9.50001V9.50001V9.50001V9.50001V9.50001M7.44231 11.5769H8.5577L8.63078 10.6539C8.89232 10.6039 9.14135 10.5167 9.37789 10.3923C9.61443 10.268 9.81283 10.1064 9.97308 9.9077L10.7769 10.3115L11.3346 9.36154L10.6039 8.82308C10.7141 8.54872 10.7692 8.27436 10.7692 8.00001C10.7692 7.72565 10.7141 7.45129 10.6039 7.17693L11.3346 6.63847L10.7769 5.68846L9.97308 6.09231C9.81283 5.89359 9.61443 5.73206 9.37789 5.6077C9.14135 5.48334 8.89232 5.39616 8.63078 5.34616L8.5577 4.42308H7.44231L7.36923 5.34616C7.1077 5.39616 6.85866 5.48334 6.62212 5.6077C6.38558 5.73206 6.18719 5.89359 6.02693 6.09231L5.22308 5.68846L4.66539 6.63847L5.39616 7.17693C5.2859 7.45129 5.23077 7.72565 5.23077 8.00001C5.23077 8.27436 5.2859 8.54872 5.39616 8.82308L4.66539 9.36154L5.22308 10.3115L6.02693 9.9077C6.18719 10.1064 6.38558 10.268 6.62212 10.3923C6.85866 10.5167 7.1077 10.6039 7.36923 10.6539L7.44231 11.5769V11.5769M8.00001 9.86539C7.48078 9.86539 7.04007 9.6843 6.67789 9.32212C6.31571 8.95994 6.13462 8.51924 6.13462 8.00001C6.13462 7.48078 6.31571 7.04007 6.67789 6.67789C7.04007 6.31571 7.48078 6.13462 8.00001 6.13462C8.51924 6.13462 8.95994 6.31571 9.32212 6.67789C9.6843 7.04007 9.86539 7.48078 9.86539 8.00001C9.86539 8.51924 9.6843 8.95994 9.32212 9.32212C8.95994 9.6843 8.51924 9.86539 8.00001 9.86539V9.86539" fill="var(--fill-0, #E9C176)"/>
</g>
</svg>
