<svg preserveAspectRatio="none" width="100%" height="100%" overflow="visible" style="display: block;" viewBox="0 0 16 18" fill="none" xmlns="http://www.w3.org/2000/svg">
<g id="Container">
<path id="Icon" d="M1.61539 18C1.16795 18 0.78686 17.8426 0.472116 17.5279C0.157372 17.2132 0 16.8321 0 16.3846V3.61539C0 3.16795 0.157372 2.78686 0.472116 2.47212C0.78686 2.15737 1.16795 2 1.61539 2H6.31538C6.22436 1.48974 6.34648 1.02885 6.68173 0.617307C7.01699 0.205769 7.45642 0 8.00001 0C8.55642 0 9.00225 0.205769 9.33751 0.617307C9.67277 1.02885 9.78847 1.48974 9.68463 2H14.3846C14.8321 2 15.2132 2.15737 15.5279 2.47212C15.8426 2.78686 16 3.16795 16 3.61539V16.3846C16 16.8321 15.8426 17.2132 15.5279 17.5279C15.2132 17.8426 14.8321 18 14.3846 18H1.61539V18M1.61539 17H14.3846C14.5385 17 14.6795 16.9359 14.8077 16.8077C14.9359 16.6795 15 16.5385 15 16.3846V3.61539C15 3.46154 14.9359 3.32052 14.8077 3.19231C14.6795 3.06411 14.5385 3.00001 14.3846 3.00001H1.61539C1.46154 3.00001 1.32052 3.06411 1.19231 3.19231C1.06411 3.32052 1.00001 3.46154 1.00001 3.61539V16.3846C1.00001 16.5385 1.06411 16.6795 1.19231 16.8077C1.32052 16.9359 1.46154 17 1.61539 17V17M3.5 14.2692H9.50001V13.2692H3.5V14.2692V14.2692M3.5 10.5H12.5V9.5H3.5V10.5V10.5M3.5 6.73078H12.5V5.73077H3.5V6.73078V6.73078M8.00001 2.44231C8.21667 2.44231 8.39584 2.37148 8.53751 2.22981C8.67917 2.08815 8.75001 1.90898 8.75001 1.69231C8.75001 1.47565 8.67917 1.29648 8.53751 1.15481C8.39584 1.01315 8.21667 0.942313 8.00001 0.942313C7.78334 0.942313 7.60417 1.01315 7.46251 1.15481C7.32084 1.29648 7.25001 1.47565 7.25001 1.69231C7.25001 1.90898 7.32084 2.08815 7.46251 2.22981C7.60417 2.37148 7.78334 2.44231 8.00001 2.44231V2.44231M1.00001 17C1.00001 17 1.00001 16.9359 1.00001 16.8077C1.00001 16.6795 1.00001 16.5385 1.00001 16.3846V3.61539C1.00001 3.46154 1.00001 3.32052 1.00001 3.19231C1.00001 3.06411 1.00001 3.00001 1.00001 3.00001V3.00001C1.00001 3.00001 1.00001 3.06411 1.00001 3.19231C1.00001 3.32052 1.00001 3.46154 1.00001 3.61539V16.3846C1.00001 16.5385 1.00001 16.6795 1.00001 16.8077C1.00001 16.9359 1.00001 17 1.00001 17V17V17" fill="var(--fill-0, #E9C176)"/>
</g>
</svg>
