<svg preserveAspectRatio="none" width="100%" height="100%" overflow="visible" style="display: block;" viewBox="0 0 16 16" fill="none" xmlns="http://www.w3.org/2000/svg">
<g id="Container">
<path id="Icon" d="M4.38461 16V15H7.5V11.2462C6.61923 11.0885 5.8484 10.7202 5.1875 10.1414C4.52661 9.56251 4.0718 8.84488 3.82308 7.98847C2.76539 7.86411 1.86378 7.43046 1.11827 6.68751C0.372757 5.94456 0 5.04873 0 4.00001V3.00001C0 2.73206 0.0996801 2.4984 0.29904 2.29904C0.4984 2.09968 0.732056 2 1.00001 2H3.65385V0H12.3462V2H15C15.268 2 15.5016 2.09968 15.701 2.29904C15.9003 2.4984 16 2.73206 16 3.00001V4.00001C16 5.04873 15.6273 5.94456 14.8817 6.68751C14.1362 7.43046 13.2346 7.86411 12.1769 7.98847C11.9282 8.84488 11.4734 9.56251 10.8125 10.1414C10.1516 10.7202 9.38078 11.0885 8.50001 11.2462V15H11.6154V16H4.38461V16M3.65385 6.91539V3.00001H1.00001V4.00001C1.00001 4.76154 1.25385 5.41571 1.76154 5.9625C2.26923 6.5093 2.9 6.82693 3.65385 6.91539V6.91539M8.00001 10.2692C8.92308 10.2692 9.70513 9.94872 10.3462 9.3077C10.9872 8.66667 11.3077 7.88462 11.3077 6.96154V1.00001H4.69232V6.96154C4.69232 7.88462 5.01283 8.66667 5.65385 9.3077C6.29488 9.94872 7.07693 10.2692 8.00001 10.2692V10.2692M12.3462 6.91539C13.1 6.82693 13.7308 6.5093 14.2385 5.9625C14.7462 5.41571 15 4.76154 15 4.00001V3.00001H12.3462V6.91539V6.91539M8.00001 5.63462V5.63462V5.63462V5.63462V5.63462V5.63462V5.63462V5.63462V5.63462" fill="var(--fill-0, #E9C176)"/>
</g>
</svg>
